# xmcd
# 
# Track frame offsets:
#     150
#     27780
#     53275
#     70315
#     87480
#     114010
#     121582
#     135062
#     149927
#     169750
#     187150
# 
# Disc length: 2724
# 
# Revision: 4
# Processed by: cddbd v1.5.2PL0 Copyright (c) Steve Scherf et al.
# Submitted via: fre:ac v1.0.17
# 
DISCID=8d0aa20b
DTITLE=Various Artist - Mushroom Jazz - Mark Farina -
DYEAR=1996
DGENRE=Electronic
TTITLE0=Julius Papp - Warm Chill
TTITLE1=Hydroponic Groove Sessions - In Hale
TTITLE2=J Live - Long Livety
TTITLE3=Mr. Electric Triangle - Bossa Nova (Dope Mix)
TTITLE4=Lalomie Washburn - Music Use It
TTITLE5=Blue Boy - Remeber Me
TTITLE6=Apollo Grooves - Gibby Music (Gospel Oak Dub)
TTITLE7=Deadbeats - Pick Me Up
TTITLE8=Naked Funk - Midnight
TTITLE9=Groove Nation - Get This (Instrumental)
TTITLE10=Paul Johnson - If We Lose Our Way
EXTD=
EXTT0=
EXTT1=
EXTT2=
EXTT3=
EXTT4=
EXTT5=
EXTT6=
EXTT7=
EXTT8=
EXTT9=
EXTT10=
PLAYORDER=
